<svg xml:space="preserve" style="enable-background:new 0 0 1200 1200;" viewBox="0 0 1200 1200" y="0px" x="0px" xmlns:xlink="http://www.w3.org/1999/xlink" xmlns="http://www.w3.org/2000/svg" id="图层_1" version="1.1">
<style type="text/css">
	.st0{fill:#8E5660;}
	.st1{fill:#C8C7CE;}
	.st2{fill:#7D7F88;stroke:#676B72;stroke-width:6;stroke-miterlimit:10;}
	.st3{fill:#7D7F88;}
	.st4{fill:#4880AA;}
	.st5{fill:#75614E;}
	.st6{fill:#E4E4ED;}
	.st7{fill:#563E28;}
	.st8{fill:#FCF0E6;}
	.st9{fill:#DD725E;}
	.st10{fill:#7782ED;}
	.st11{fill:#E58A7F;}
	.st12{fill:#75614E;stroke:#DD725E;stroke-width:20;stroke-linecap:round;stroke-miterlimit:10;}
</style>
<g>
	<g>
		<circle r="600" cy="600" cx="600" class="st0"></circle>
		<circle r="584" cy="600" cx="600" class="st1"></circle>
		<circle r="545.82" cy="600" cx="600" class="st2"></circle>
		<circle r="540" cy="600" cx="600" class="st3"></circle>
		<circle r="492.33" cy="600" cx="600" class="st3"></circle>
		<g>
			<g>
				<g>
					<path d="M223.27,860.3c-13.38,14.8-15.78,35.68-7.7,52.64c-8.87,2.23-17.2,7.02-23.79,14.31
						c-17.71,19.6-16.18,49.85,3.42,67.56c12.05,10.89,28.13,14.5,42.85,11.11c-0.31,0.32-0.62,0.65-0.92,0.99
						c-17.71,19.6-16.18,49.85,3.42,67.56c12.04,10.88,28.11,14.5,42.82,11.12c-1.87,14.97,3.34,30.59,15.39,41.47
						c19.6,17.71,49.85,16.18,67.56-3.42c0.3-0.33,0.6-0.67,0.89-1.01c-1.89,14.98,3.33,30.62,15.38,41.51
						c19.6,17.71,49.85,16.18,67.56-3.42c6.59-7.3,10.52-16.07,11.84-25.11c17.69,6.32,38.22,1.82,51.6-12.98
						c17.71-19.6,16.18-49.85-3.42-67.56c-12.49-11.28-29.3-14.76-44.43-10.72c0.15-20.29-8.03-40.55-24.27-55.23
						c-15.29-13.82-34.8-20.03-53.87-18.87c-0.77-19.09-8.92-37.87-24.21-51.69c-16.24-14.67-37.23-20.77-57.4-18.57
						c2.48-15.47-2.67-31.84-15.15-43.12C271.23,839.17,240.98,840.7,223.27,860.3z" class="st4"></path>
					<path d="M414.63,1186.04c-13.73,0-27.5-4.88-38.46-14.79c-8.77-7.93-14.76-18.27-17.39-29.5
						c-7.59,4.24-16.12,6.71-25.06,7.16c-15.31,0.77-30.01-4.46-41.39-14.74c-10.9-9.85-17.5-23.42-18.71-37.8
						c-14.43,0.25-28.59-4.95-39.49-14.8c-18.69-16.89-23.67-43.38-14.22-65.33c-11.45-1.48-22.35-6.39-31.13-14.33
						c-23.48-21.22-25.32-57.59-4.1-81.07c5.26-5.83,11.58-10.45,18.6-13.68c-4.99-18.59-0.36-38.62,12.89-53.28l0,0
						c21.22-23.48,57.59-25.32,81.07-4.1c11.6,10.49,18.27,24.98,18.88,40.25c19.76,0.51,38.85,8.05,53.67,21.44
						c14.42,13.03,23.63,30.24,26.48,49.18c19.13,0.92,37.18,8.35,51.6,21.38c14.82,13.39,24.25,31.63,26.75,51.23
						c15.25-0.94,30.35,4.23,41.95,14.72c23.48,21.22,25.33,57.59,4.1,81.07c-13.25,14.66-32.71,21.29-51.71,18.21
						c-2.5,7.31-6.47,14.06-11.73,19.89C445.93,1179.67,430.31,1186.04,414.63,1186.04z M380.69,1092.11l-4,31.74
						c-1.56,12.42,3.04,24.84,12.31,33.22c15.66,14.15,39.9,12.92,54.05-2.74c5.1-5.64,8.38-12.59,9.47-20.08l1.69-11.55l11,3.93
						c14.65,5.23,30.85,1.15,41.28-10.38c14.15-15.66,12.92-39.9-2.74-54.05c-9.66-8.73-22.95-11.93-35.56-8.58l-12.12,3.23
						l0.09-12.55c0.14-18.29-7.56-35.81-21.12-48.06c-12.88-11.64-29.53-17.47-46.87-16.42l-9.75,0.59l-0.39-9.76
						c-0.7-17.36-8.18-33.33-21.07-44.98c-13.56-12.25-31.76-18.14-49.95-16.16l-12.47,1.36l1.99-12.39
						c2.07-12.88-2.46-25.78-12.12-34.51c-15.66-14.15-39.9-12.92-54.05,2.74l0,0c-10.43,11.54-12.85,28.07-6.16,42.12l5.02,10.54
						l-11.32,2.85c-7.34,1.85-13.92,5.8-19.02,11.45c-14.15,15.66-12.92,39.9,2.74,54.05c9.27,8.38,22.09,11.7,34.29,8.89
						l31.14-7.17l-22.07,23.1c-0.25,0.26-0.5,0.53-0.74,0.8c-14.14,15.65-12.92,39.9,2.74,54.05c9.26,8.37,22.07,11.69,34.26,8.9
						l13.33-3.06l-1.7,13.57c-1.55,12.41,3.05,24.82,12.31,33.19c7.58,6.85,17.38,10.34,27.59,9.83
						c10.21-0.52,19.6-4.98,26.46-12.56c0.24-0.27,0.48-0.54,0.71-0.81L380.69,1092.11z" class="st5"></path>
				</g>
			</g>
			<g>
				<g>
					<path d="M976.7,860.3c13.38,14.8,15.78,35.68,7.7,52.64c8.87,2.23,17.2,7.02,23.79,14.31
						c17.71,19.6,16.18,49.85-3.42,67.56c-12.05,10.89-28.13,14.5-42.85,11.11c0.31,0.32,0.62,0.65,0.92,0.99
						c17.71,19.6,16.18,49.85-3.42,67.56c-12.04,10.88-28.11,14.5-42.82,11.12c1.87,14.97-3.34,30.59-15.39,41.47
						c-19.6,17.71-49.85,16.18-67.56-3.42c-0.3-0.33-0.6-0.67-0.89-1.01c1.89,14.98-3.33,30.62-15.38,41.51
						c-19.6,17.71-49.85,16.18-67.56-3.42c-6.59-7.3-10.52-16.07-11.84-25.11c-17.69,6.32-38.22,1.82-51.6-12.98
						c-17.71-19.6-16.18-49.85,3.42-67.56c12.49-11.28,29.3-14.76,44.43-10.72c-0.15-20.29,8.03-40.55,24.27-55.23
						c15.29-13.82,34.8-20.03,53.87-18.87c0.77-19.09,8.92-37.87,24.21-51.69c16.24-14.67,37.23-20.77,57.4-18.57
						c-2.48-15.47,2.67-31.84,15.15-43.12C928.74,839.17,958.99,840.7,976.7,860.3z" class="st4"></path>
					<path d="M785.38,1186.07c-0.99,0-1.98-0.02-2.97-0.08c-15.31-0.78-29.41-7.47-39.69-18.84
						c-5.26-5.83-9.23-12.58-11.73-19.89c-3.06,0.5-6.13,0.74-9.18,0.74c-15.92,0-31.41-6.65-42.53-18.95
						c-21.22-23.48-19.38-59.85,4.1-81.07c11.6-10.48,26.7-15.65,41.95-14.72c2.51-19.6,11.93-37.84,26.75-51.23
						c14.42-13.03,32.47-20.45,51.6-21.38c2.85-18.94,12.06-36.15,26.48-49.18c14.82-13.39,33.92-20.93,53.67-21.44
						c0.6-15.27,7.28-29.76,18.88-40.25c23.48-21.22,59.85-19.38,81.07,4.1c13.25,14.66,17.88,34.69,12.89,53.28
						c7.02,3.22,13.34,7.85,18.6,13.68c10.28,11.38,15.51,26.07,14.74,41.39c-0.78,15.31-7.47,29.41-18.84,39.69
						c-8.78,7.93-19.68,12.85-31.13,14.33c9.45,21.95,4.47,48.44-14.22,65.33c-10.9,9.85-25.07,15.06-39.5,14.8
						c-1.21,14.38-7.81,27.95-18.71,37.8c-10.96,9.9-24.73,14.78-38.46,14.79c-9.68,0-19.34-2.43-27.98-7.23
						c-2.63,11.24-8.62,21.59-17.4,29.52C813.16,1180.87,799.61,1186.07,785.38,1186.07z M745.76,1122.69l1.69,11.55
						c1.09,7.49,4.37,14.44,9.47,20.08c6.85,7.58,16.25,12.05,26.46,12.56c10.21,0.51,20.01-2.97,27.59-9.83
						c9.27-8.38,13.87-20.79,12.31-33.22l-3.99-31.71l20.76,24.31c0.23,0.27,0.47,0.55,0.71,0.82
						c14.14,15.65,38.39,16.88,54.05,2.73c9.26-8.37,13.86-20.78,12.31-33.19l-1.7-13.57l13.33,3.06c12.19,2.8,25-0.53,34.26-8.9
						c15.66-14.15,16.88-38.39,2.74-54.05c-0.24-0.27-0.49-0.53-0.74-0.79l-22.09-23.11l31.16,7.18c12.2,2.81,25.02-0.51,34.29-8.89
						c7.58-6.85,12.05-16.25,12.56-26.46c0.52-10.21-2.97-20.01-9.83-27.59c-5.1-5.64-11.68-9.6-19.02-11.45l-11.32-2.85l5.02-10.54
						c6.68-14.05,4.27-30.58-6.16-42.12c-14.15-15.66-38.39-16.88-54.05-2.74c-9.66,8.73-14.19,21.63-12.12,34.51l1.99,12.39
						l-12.47-1.36c-18.18-1.98-36.39,3.91-49.95,16.16c-12.88,11.64-20.36,27.61-21.07,44.98l-0.39,9.76l-9.75-0.59
						c-17.34-1.05-33.99,4.78-46.87,16.42c-13.56,12.25-21.25,29.77-21.12,48.06l0.09,12.55l-12.12-3.23
						c-12.6-3.36-25.9-0.15-35.56,8.58c-15.66,14.15-16.88,38.39-2.74,54.05c10.43,11.54,26.63,15.61,41.28,10.38L745.76,1122.69z" class="st5"></path>
				</g>
			</g>
		</g>
		<g>
			<g>
				<g>
					<path d="M929.6,722.48c0,0,42.8-23.95,75.2-5.23c32.44,18.75,20,51.38-5.81,54.5
						C973.19,774.87,929.6,722.48,929.6,722.48z" class="st6"></path>
					<path d="M996.67,779.07c-12.49,0-27.86-8.36-46.85-25.45c-14.34-12.91-25.28-26-25.73-26.55l-5.52-6.64l7.53-4.21
						c1.89-1.06,46.77-25.71,82.3-5.18c17.2,9.94,25.58,25.13,22.4,40.65c-2.94,14.38-15.38,25.31-30.94,27.19
						C998.82,779,997.75,779.07,996.67,779.07z M941.32,724.91c4.44,4.85,10.92,11.59,18.22,18.15
						c16.36,14.7,30.42,22.57,38.6,21.57c9.43-1.14,16.9-7.5,18.61-15.82c1.9-9.31-3.75-18.54-15.52-25.34
						C980.59,711.54,954.4,719.5,941.32,724.91z" class="st5"></path>
				</g>
			</g>
			<g>
				<path d="M945,718.62c0,0,87.06,27.74,78.45,72.23c-8.61,44.49-52.62,25.35-52.62,25.35L945,718.62z" class="st6"></path>
				<path d="M991.22,827.45c-12.3,0-22.62-4.39-23.26-4.67l-3.19-1.39l-30.07-113.59l12.46,3.97
					c0.92,0.29,22.81,7.34,43.98,20.13c12.76,7.71,22.62,15.93,29.3,24.46c9.03,11.51,12.4,23.57,10.03,35.85
					c-2.89,14.93-9.71,25.32-20.29,30.89C1004.02,826.35,997.37,827.45,991.22,827.45z M976.8,810.73
					c5.57,1.77,17.52,4.54,26.76-0.36c6.5-3.45,10.82-10.48,12.84-20.89c3.65-18.86-15.64-34.98-32.47-45.18
					c-10.11-6.13-20.6-10.91-28.45-14.12L976.8,810.73z" class="st5"></path>
			</g>
			<g>
				<path d="M946.58,735.18c0,0,75.3,51.76,54.17,91.85c-21.12,40.09-57.7,9.03-57.7,9.03L946.58,735.18z" class="st6"></path>
				<path d="M971.94,854.71c-17.79,0-32.83-12.57-33.54-13.17l-2.65-2.25l4.11-117.42l10.78,7.41
					c0.8,0.55,19.71,13.63,36.27,32c9.98,11.07,17.03,21.8,20.97,31.89c5.31,13.63,5.05,26.15-0.78,37.21
					c-7.09,13.45-16.63,21.42-28.36,23.69C976.45,854.51,974.17,854.71,971.94,854.71z M950.35,832.56
					c4.82,3.3,15.45,9.42,25.72,7.41c7.22-1.42,13.39-6.89,18.33-16.28c8.96-17-4.84-38.01-18-52.64
					c-7.9-8.79-16.56-16.4-23.14-21.75L950.35,832.56z" class="st5"></path>
			</g>
			<g>
				<g>
					<g>
						<path d="M270.4,722.48c0,0-42.8-23.95-75.2-5.23c-32.44,18.75-20,51.38,5.81,54.5
							C226.81,774.87,270.4,722.48,270.4,722.48z" class="st6"></path>
						<path d="M203.33,779.07c-1.09,0-2.15-0.06-3.19-0.19c-15.57-1.88-28-12.81-30.94-27.19
							c-3.17-15.51,5.2-30.71,22.4-40.65c35.53-20.53,80.41,4.12,82.3,5.18l7.53,4.21l-5.52,6.64
							c-0.46,0.55-11.39,13.65-25.73,26.55C231.19,770.71,215.82,779.07,203.33,779.07z M223.77,717.29
							c-8.46,0-17.14,1.64-24.99,6.18c-11.77,6.8-17.43,16.04-15.52,25.34c1.7,8.32,9.18,14.68,18.61,15.82
							c8.2,0.99,22.31-6.91,38.71-21.68c7.26-6.54,13.68-13.21,18.09-18.03C250.57,721.59,237.45,717.29,223.77,717.29z" class="st5"></path>
					</g>
				</g>
				<g>
					<path d="M255,718.62c0,0-87.06,27.74-78.45,72.23c8.61,44.49,52.62,25.35,52.62,25.35L255,718.62z" class="st6"></path>
					<path d="M208.78,827.45c-6.15,0-12.8-1.1-18.98-4.35c-10.57-5.57-17.4-15.96-20.29-30.89
						c-2.38-12.28,1-24.34,10.03-35.85c6.69-8.52,16.55-16.75,29.3-24.46c21.17-12.79,43.06-19.83,43.98-20.13l12.46-3.97
						l-30.07,113.59l-3.19,1.39C231.4,823.06,221.08,827.45,208.78,827.45z M244.52,730.19c-7.85,3.21-18.34,8-28.45,14.12
						c-16.83,10.2-36.12,26.31-32.47,45.18c2.02,10.44,6.36,17.48,12.89,20.92c9.19,4.84,21.14,2.08,26.71,0.32L244.52,730.19z" class="st5"></path>
				</g>
				<g>
					<path d="M253.42,735.18c0,0-75.3,51.76-54.17,91.85c21.12,40.09,57.7,9.03,57.7,9.03L253.42,735.18z" class="st6"></path>
					<path d="M228.06,854.71c-2.23,0-4.5-0.2-6.8-0.64c-11.73-2.27-21.27-10.24-28.36-23.69
						c-5.83-11.07-6.09-23.59-0.78-37.21c3.93-10.09,10.99-20.82,20.97-31.89c16.56-18.37,35.48-31.45,36.27-32l10.78-7.41
						l4.11,117.42l-2.65,2.25C260.89,842.13,245.85,854.71,228.06,854.71z M246.74,749.29c-6.59,5.35-15.24,12.96-23.14,21.75
						c-13.15,14.63-26.95,35.64-18,52.64c4.96,9.41,11.14,14.89,18.39,16.29c10.19,1.97,20.84-4.13,25.66-7.43L246.74,749.29z
						 M257.49,741.09L257.49,741.09L257.49,741.09z" class="st5"></path>
				</g>
			</g>
		</g>
		<g>
			<path d="M794.72,568.05c0,75.49-87.18,136.69-194.72,136.69s-194.72-61.2-194.72-136.69S492.46,447.4,600,447.4
				S794.72,492.56,794.72,568.05z" class="st7"></path>
			<path d="M600,714.31c-53.96,0-104.81-14.84-143.19-41.77c-18.98-13.32-33.93-28.92-44.43-46.34
				c-11.06-18.36-16.67-37.93-16.67-58.14c0-20.25,5.69-39.09,16.9-55.99c10.48-15.79,25.57-29.55,44.85-40.89
				c36.55-21.5,87.17-33.34,142.54-33.34c55.37,0,105.99,11.84,142.54,33.34c19.28,11.34,34.37,25.1,44.85,40.89
				c11.21,16.9,16.9,35.74,16.9,55.99c0,20.22-5.61,39.78-16.67,58.14c-10.5,17.43-25.45,33.02-44.43,46.34
				C704.81,699.48,653.96,714.31,600,714.31z M600,456.96c-109.02,0-185.16,45.68-185.16,111.09c0,33.3,18.81,64.85,52.96,88.83
				c35.18,24.7,82.13,38.3,132.19,38.3c50.06,0,97.01-13.6,132.19-38.3c34.15-23.98,52.96-55.52,52.96-88.83
				C785.16,502.64,709.02,456.96,600,456.96z" class="st5"></path>
		</g>
		<g>
			<path d="M943.97,787.5c0,180.17-154,326.23-343.97,326.23S256.03,967.67,256.03,787.5s154-287.96,343.97-287.96
				S943.97,607.33,943.97,787.5z" class="st4"></path>
			<path d="M600,1123.3c-47.66,0-93.91-8.86-137.45-26.32c-42.08-16.88-79.89-41.06-112.36-71.85
				c-32.5-30.83-58.03-66.74-75.87-106.74c-18.49-41.45-27.86-85.49-27.86-130.88c0-45.25,9.42-87.38,28.01-125.22
				c17.71-36.06,43.4-67.63,76.35-93.81c31.88-25.34,69.71-44.99,112.42-58.4c42.47-13.34,88.48-20.1,136.75-20.1
				s94.28,6.76,136.75,20.1c42.71,13.41,80.54,33.06,112.42,58.4c32.95,26.19,58.64,57.75,76.35,93.81
				c18.59,37.85,28.01,79.98,28.01,125.22c0,45.39-9.37,89.43-27.86,130.88c-17.84,40-43.36,75.91-75.87,106.74
				c-32.47,30.79-70.27,54.97-112.36,71.85C693.91,1114.44,647.66,1123.3,600,1123.3z M600,509.1
				c-196.89,0-334.4,114.48-334.4,278.4c0,174.61,150.01,316.66,334.4,316.66S934.4,962.11,934.4,787.5
				C934.4,623.58,796.89,509.1,600,509.1z" class="st5"></path>
		</g>
		<g>
			<path d="M946.2,881.97c0-34.92,37.9-114.32,0-114.8c-21.76-0.27-36.13,19.3-44.43,36.04
				C874.48,700.59,813.56,615.9,758.19,608.6c-127.44-16.8-153.29-5.5-157.7,6.85c-0.16,0.44-0.82,0.44-0.98,0
				c-4.41-12.35-30.25-23.65-157.7-6.85c-55.38,7.3-116.29,91.99-143.58,194.61c-8.3-16.73-22.68-36.31-44.43-36.04
				c-37.9,0.48,0,79.88,0,114.8c0,34.92-81.41,89.45-51.69,147.33c27.85,54.24,97.36,10.57,91.27-36.84
				c27.27,106.17,115.04,193.85,306.3,197.79v0.02c0.11,0,0.21-0.01,0.32-0.01c0.11,0,0.21,0.01,0.32,0.01v-0.02
				c191.26-3.95,279.03-91.62,306.3-197.79c-6.09,47.41,63.42,91.08,91.27,36.84C1027.61,971.42,946.2,916.89,946.2,881.97z" class="st8"></path>
			<path d="M590.11,1200v-0.45c-87.18-3.09-158.03-23.97-210.69-62.12c-24.64-17.85-45.36-39.59-61.6-64.63
				c-8.89-13.71-16.5-28.5-22.74-44.2c-1.28,2.27-2.71,4.5-4.28,6.67c-8.94,12.36-21.92,21.89-35.62,26.15
				c-11.71,3.64-23.4,3.36-33.8-0.8c-11.48-4.59-21.08-13.91-27.78-26.95c-9.64-18.77-10.13-38.67-1.5-60.84
				c7.05-18.13,19.25-35.13,30.01-50.12c11.37-15.85,22.12-30.81,22.12-40.73c0-10.12-3.95-25.99-7.76-41.34
				c-7.5-30.16-14.58-58.64-2.87-73.8c3.19-4.13,9.26-9.09,20.08-9.23c0.19,0,0.39,0,0.58,0c15.34,0,29.18,7.66,40.77,22.39
				c13.73-43.36,33.52-83.77,56.74-115.48c13.52-18.47,27.75-33.43,42.3-44.47c15.65-11.88,31.29-18.92,46.49-20.92
				c58.68-7.73,100.28-10.2,127.18-7.54c10.37,1.03,23.43,3.16,32.26,9.6c8.83-6.44,21.89-8.57,32.26-9.6
				c26.9-2.66,68.5-0.19,127.18,7.54c15.2,2,30.84,9.04,46.49,20.92c14.55,11.04,28.78,26,42.3,44.47
				c23.22,31.71,43.01,72.12,56.74,115.48c11.58-14.73,25.43-22.39,40.77-22.39c0.2,0,0.39,0,0.58,0
				c10.82,0.14,16.89,5.09,20.08,9.23c11.7,15.16,4.62,43.65-2.87,73.8c-3.82,15.35-7.76,31.22-7.76,41.34
				c0,9.92,10.74,24.89,22.12,40.73c10.76,14.99,22.96,31.99,30.01,50.12c8.63,22.18,8.13,42.08-1.5,60.84
				c-6.7,13.04-16.3,22.36-27.78,26.95c-10.4,4.16-22.08,4.44-33.8,0.8c-13.7-4.25-26.68-13.78-35.62-26.15
				c-1.57-2.17-3-4.4-4.28-6.67c-6.24,15.7-13.85,30.48-22.74,44.2c-16.24,25.04-36.96,46.78-61.6,64.63
				c-52.66,38.15-123.51,59.03-210.69,62.12v0.43l-9.89-0.16l-0.16,0L590.11,1200z M302.65,990.08
				c21.73,84.6,90.94,186.35,297.23,190.61l0.13,0l0.12,0c206.29-4.26,275.5-106,297.23-190.61l18.75,3.6
				c-2.87,22.32,15.46,43.6,34.39,49.47c9.51,2.95,27.21,4.51,38.88-18.22c7.09-13.8,7.31-28.16,0.69-45.17
				c-6.17-15.88-17.13-31.14-27.73-45.9c-13.79-19.22-25.71-35.81-25.71-51.89c0-12.46,4.04-28.73,8.33-45.96
				c3.2-12.88,6.51-26.2,7.87-37.29c1.67-13.63-0.27-18.51-1.58-20.21c-0.4-0.52-1.34-1.74-5.17-1.78c-0.1,0-0.21,0-0.32,0
				c-16.67,0-28.46,16.68-35.42,30.73l-11.29,22.75l-6.53-24.55c-13-48.89-34.21-95-59.73-129.86
				c-24.94-34.07-51.88-54.57-75.85-57.73c-56.41-7.44-97.72-9.95-122.79-7.47c-16.65,1.65-23.68,5.37-24.64,8.05
				c-1.42,3.99-5.24,6.68-9.5,6.68c-4.26,0-8.07-2.68-9.5-6.68c-0.96-2.69-7.99-6.41-24.64-8.05c-25.07-2.48-66.38,0.03-122.79,7.47
				c-23.97,3.16-50.91,23.66-75.85,57.73c-25.52,34.85-46.73,80.97-59.73,129.86l-6.53,24.55l-11.29-22.75
				c-6.97-14.04-18.75-30.73-35.42-30.73c-0.11,0-0.21,0-0.32,0c-3.83,0.05-4.77,1.27-5.17,1.78c-1.31,1.7-3.25,6.58-1.58,20.21
				c1.36,11.09,4.67,24.41,7.87,37.29c4.28,17.23,8.33,33.5,8.33,45.96c0,16.08-11.91,32.67-25.71,51.89
				c-10.6,14.76-21.55,30.02-27.73,45.9c-6.62,17.01-6.4,31.37,0.69,45.17c11.67,22.73,29.37,21.17,38.88,18.22
				c18.92-5.88,37.26-27.16,34.39-49.47L302.65,990.08z M591.49,612.21c0,0.01-0.01,0.02-0.01,0.02
				C591.48,612.23,591.48,612.22,591.49,612.21z" class="st5"></path>
		</g>
		<g>
			<g>
				<path d="M293.4,992.46c0,0-5.46-22.95-3.91-37.78" class="st8"></path>
				<path d="M284.09,994.67c-0.19-0.79-3.71-15.77-4.34-30.04c-0.26-5.81,4.77-10.47,10.55-9.87h0
					c4.7,0.49,8.34,4.33,8.56,9.05c0.45,10.08,2.75,21.82,3.85,26.43L284.09,994.67z" class="st5"></path>
			</g>
			<g>
				<path d="M906.6,992.46c0,0,5.46-22.95,3.91-37.78" class="st8"></path>
				<path d="M915.91,994.67l-18.62-4.42c0,0,0,0,0,0l0,0c1.09-4.62,3.39-16.36,3.85-26.43
					c0.21-4.72,3.86-8.56,8.56-9.05l0,0c5.79-0.6,10.81,4.06,10.55,9.87C919.62,978.91,916.1,993.88,915.91,994.67z" class="st5"></path>
			</g>
		</g>
		<g>
			<g>
				<path d="M395.75,493.32c-26.42,0-47.83,21.42-47.83,47.83c0,0.51,0.01,1.01,0.03,1.51
					c-3.83-0.99-7.85-1.51-11.98-1.51c-26.42,0-47.83,21.42-47.83,47.83c0,26.42,21.42,47.83,47.83,47.83s47.83-21.42,47.83-47.83
					c0-0.51-0.01-1.01-0.03-1.51c3.83,0.99,7.85,1.51,11.98,1.51c26.42,0,47.83-21.42,47.83-47.83
					C443.58,514.73,422.16,493.32,395.75,493.32z" class="st4"></path>
				<path d="M335.95,646.39c-31.65,0-57.4-25.75-57.4-57.4c0-31.65,25.75-57.4,57.4-57.4c1.06,0,2.12,0.03,3.17,0.09
					c4.53-27.16,28.2-47.92,56.62-47.92c31.65,0,57.4,25.75,57.4,57.4c0,31.65-25.75,57.4-57.4,57.4c-1.06,0-2.12-0.03-3.17-0.09
					C388.04,625.62,364.38,646.39,335.95,646.39z M335.95,550.72c-21.1,0-38.27,17.17-38.27,38.27c0,21.1,17.17,38.27,38.27,38.27
					s38.27-17.17,38.27-38.27c0-0.41-0.01-0.81-0.02-1.22l-0.4-12.75l12.35,3.19c3.11,0.8,6.34,1.21,9.59,1.21
					c21.1,0,38.27-17.17,38.27-38.27c0-21.1-17.17-38.27-38.27-38.27s-38.27,17.17-38.27,38.27c0,0.41,0.01,0.81,0.02,1.22
					l0.4,12.75l-12.35-3.19C342.43,551.13,339.21,550.72,335.95,550.72z" class="st5"></path>
			</g>
			<g>
				<path d="M864.05,541.15c-4.14,0-8.15,0.53-11.98,1.51c0.02-0.5,0.03-1.01,0.03-1.51
					c0-26.42-21.42-47.83-47.83-47.83c-26.42,0-47.83,21.42-47.83,47.83c0,26.42,21.42,47.83,47.83,47.83
					c4.14,0,8.15-0.53,11.98-1.51c-0.02,0.5-0.03,1.01-0.03,1.51c0,26.42,21.42,47.83,47.83,47.83c26.42,0,47.83-21.42,47.83-47.83
					C911.88,562.57,890.46,541.15,864.05,541.15z" class="st4"></path>
				<path d="M864.05,646.39c-28.42,0-52.09-20.76-56.62-47.92c-1.06,0.06-2.11,0.09-3.17,0.09
					c-31.65,0-57.4-25.75-57.4-57.4c0-31.65,25.75-57.4,57.4-57.4c28.42,0,52.09,20.76,56.62,47.92c1.06-0.06,2.11-0.09,3.17-0.09
					c31.65,0,57.4,25.75,57.4,57.4C921.45,620.64,895.7,646.39,864.05,646.39z M826.2,575.02l-0.4,12.75
					c-0.01,0.41-0.02,0.81-0.02,1.22c0,21.1,17.17,38.27,38.27,38.27s38.27-17.17,38.27-38.27c0-21.1-17.17-38.27-38.27-38.27
					c-3.25,0-6.48,0.41-9.59,1.21l-12.35,3.19l0.4-12.75c0.01-0.4,0.02-0.81,0.02-1.22c0-21.1-17.17-38.27-38.27-38.27
					c-21.1,0-38.27,17.17-38.27,38.27c0,21.1,17.17,38.27,38.27,38.27c3.25,0,6.48-0.41,9.59-1.21L826.2,575.02z" class="st5"></path>
			</g>
			<g>
				<path d="M795.64,458.4c0-19.95-12.22-37.05-29.58-44.22c5.09-7.6,8.05-16.74,8.05-26.57
					c0-26.42-21.42-47.83-47.83-47.83c-16.25,0-30.6,8.1-39.24,20.48c0.01-0.45,0.02-0.9,0.02-1.35c0-26.42-21.42-47.83-47.83-47.83
					c-16.23,0-30.58,8.09-39.22,20.45c-8.65-12.37-22.99-20.45-39.22-20.45c-26.42,0-47.83,21.42-47.83,47.83
					c0,0.45,0.01,0.9,0.02,1.35c-8.65-12.38-23-20.48-39.24-20.48c-26.42,0-47.83,21.42-47.83,47.83c0,9.83,2.97,18.97,8.05,26.57
					c-17.36,7.17-29.58,24.27-29.58,44.22c0,26.42,21.42,47.83,47.83,47.83c16.83,0,31.63-8.69,40.16-21.84
					c13.49,15.16,33.15,24.71,55.03,24.71c20.61,0,39.25-8.47,52.62-22.12c13.37,13.65,32,22.12,52.62,22.12
					c21.89,0,41.54-9.55,55.03-24.71c8.53,13.14,23.32,21.84,40.16,21.84C774.23,506.23,795.64,484.82,795.64,458.4z" class="st4"></path>
				<path d="M652.62,518.67c-19.44,0-37.81-6.59-52.62-18.73c-14.81,12.14-33.18,18.73-52.62,18.73
					c-19.97,0-39.2-7.21-54.2-20.08c-10.69,10.93-25.35,17.21-40.99,17.21c-31.65,0-57.4-25.75-57.4-57.4
					c0-19.76,10-37.73,26.16-48.17c-3.05-7.1-4.63-14.77-4.63-22.62c0-31.65,25.75-57.4,57.4-57.4c11.83,0,23.22,3.66,32.7,10.24
					c7.7-22.62,29.16-38.94,54.36-38.94c14.69,0,28.69,5.65,39.22,15.5c10.54-9.85,24.53-15.5,39.22-15.5
					c25.2,0,46.65,16.32,54.36,38.94c9.49-6.57,20.87-10.24,32.7-10.24c31.65,0,57.4,25.75,57.4,57.4c0,7.85-1.58,15.52-4.63,22.62
					c16.16,10.45,26.16,28.42,26.16,48.17c0,31.65-25.75,57.4-57.4,57.4c-15.64,0-30.3-6.28-40.99-17.21
					C691.82,511.46,672.59,518.67,652.62,518.67z M600,473.31l6.83,6.97c12.16,12.41,28.42,19.25,45.78,19.25
					c18.27,0,35.73-7.84,47.89-21.5l8.34-9.37l6.83,10.52c7.94,12.23,22.02,18.96,36.78,17.2c18.19-2.17,32.44-17.33,33.55-35.62
					c1-16.5-8.49-31.51-23.6-37.75l-10.79-4.46l6.49-9.7c4.21-6.29,6.44-13.64,6.44-21.25c0-21.1-17.17-38.27-38.27-38.27
					c-12.49,0-24.23,6.13-31.4,16.39l-0.96,1.38c-5.15,7.38-16.74,3.55-16.49-5.44l0.05-1.68c0.01-0.36,0.02-0.72,0.02-1.08
					c0-21.1-17.17-38.27-38.27-38.27c-12.48,0-24.22,6.12-31.38,16.37l-1.39,1.99c-3.13,4.48-9.76,4.48-12.89,0l-1.39-1.99
					c-7.17-10.25-18.9-16.37-31.38-16.37c-21.1,0-38.27,17.17-38.27,38.27c0,0.36,0.01,0.72,0.02,1.08l0.05,1.68
					c0.25,8.99-11.34,12.82-16.49,5.44l-0.96-1.38c-7.17-10.26-18.91-16.39-31.4-16.39c-21.1,0-38.27,17.17-38.27,38.27
					c0,7.61,2.23,14.96,6.44,21.25l6.49,9.7l-10.11,4.18c-14.01,5.79-23.76,19.07-24.33,34.22c-0.81,21.76,16.66,39.71,38.24,39.71
					c13.02,0,25.03-6.53,32.13-17.48l6.83-10.52l8.34,9.37c12.16,13.66,29.62,21.5,47.89,21.5c17.36,0,33.62-6.84,45.78-19.25
					L600,473.31z" class="st5"></path>
			</g>
		</g>
		<g>
			<path d="M953.74,720.29c0-15.32-9.29-28.46-22.54-34.11c0.97-4.02,1.49-8.21,1.49-12.53
				c0-29.32-23.77-53.1-53.1-53.1c-1.18,0-2.35,0.04-3.51,0.12c0.73-3.59,1.12-7.31,1.12-11.12c0-30.65-24.84-55.49-55.49-55.49
				c-9.27,0-18.01,2.28-25.69,6.3c-6.36-25.06-29.06-43.61-56.11-43.61c-11.67,0-22.52,3.45-31.61,9.39
				c-13.22-14.58-32.3-23.74-53.53-23.74c-21.9,0-41.52,9.75-54.77,25.14c-13.25-15.39-32.87-25.14-54.77-25.14
				c-21.23,0-40.32,9.16-53.53,23.74c-9.09-5.94-19.95-9.39-31.61-9.39c-27.04,0-49.75,18.54-56.1,43.61
				c-7.68-4.02-16.42-6.3-25.69-6.3c-30.64,0-55.49,24.84-55.49,55.49c0,3.81,0.38,7.53,1.12,11.12c-1.16-0.08-2.33-0.12-3.51-0.12
				c-29.32,0-53.1,23.77-53.1,53.1c0,4.32,0.52,8.51,1.49,12.53c-13.25,5.65-22.54,18.8-22.54,34.11c0,11.92,5.63,22.52,14.38,29.3
				c-1.25,3.72-1.94,7.69-1.94,11.83c0,15.02,8.94,27.95,21.78,33.77c-1.09,2.64-1.69,5.53-1.69,8.56
				c0,12.42,10.07,22.48,22.48,22.48c12.42,0,22.48-10.07,22.48-22.48c0-5.11-1.71-9.82-4.58-13.59
				c8.34-6.8,13.66-17.15,13.66-28.74c0-11.92-5.63-22.52-14.38-29.3c0.59-1.74,1.05-3.54,1.37-5.38c0.19,0,0.38,0.01,0.57,0.01
				c29.32,0,53.1-23.77,53.1-53.1c0-3.03-0.26-5.99-0.74-8.88c1.82,0.18,3.66,0.27,5.53,0.27c25.28,0,46.6-16.9,53.3-40.02
				c8.41,4.77,18.14,7.49,28.5,7.49c11.67,0,22.52-3.45,31.61-9.39c13.22,14.58,32.31,23.74,53.53,23.74
				c21.9,0,41.52-9.75,54.77-25.14c13.25,15.39,32.87,25.14,54.77,25.14c21.23,0,40.32-9.16,53.53-23.74
				c9.09,5.94,19.95,9.39,31.61,9.39c10.36,0,20.08-2.73,28.5-7.49c6.7,23.12,28.02,40.02,53.3,40.02c1.87,0,3.71-0.09,5.53-0.27
				c-0.49,2.89-0.74,5.86-0.74,8.88c0,29.32,23.77,53.1,53.1,53.1c0.19,0,0.38-0.01,0.57-0.01c0.32,1.85,0.78,3.64,1.37,5.38
				c-8.74,6.78-14.38,17.38-14.38,29.3c0,11.6,5.33,21.95,13.66,28.74c-2.87,3.77-4.58,8.48-4.58,13.59
				c0,12.42,10.07,22.48,22.48,22.48c12.42,0,22.48-10.07,22.48-22.48c0-3.03-0.6-5.92-1.69-8.56
				c12.84-5.82,21.78-18.75,21.78-33.77c0-4.14-0.69-8.12-1.94-11.83C948.1,742.81,953.74,732.21,953.74,720.29z" class="st4"></path>
			<path d="M898.73,835.81c-17.67,0-32.05-14.38-32.05-32.05c0-4.12,0.77-8.11,2.25-11.84
				c-7.28-8.41-11.34-19.16-11.34-30.49c0-9.7,2.94-18.91,8.32-26.62c-27.75-6.2-48.61-30.86-48.97-60.37
				c-12.61-0.91-24.5-5.4-34.64-13.13c-8.1-6.18-14.67-14.25-19.11-23.36c-7.42,2.72-15.31,4.13-23.27,4.13
				c-10.49,0-20.73-2.41-30.01-7.03c-15,13.67-34.7,21.38-55.14,21.38c-20.37,0-39.83-7.57-54.77-21.05
				c-14.95,13.48-34.4,21.05-54.77,21.05c-20.44,0-40.14-7.71-55.14-21.38c-9.28,4.62-19.52,7.03-30.01,7.03
				c-7.96,0-15.85-1.41-23.27-4.13c-4.44,9.11-11.01,17.18-19.11,23.36c-10.14,7.73-22.03,12.22-34.64,13.13
				c-0.36,29.51-21.23,54.17-48.97,60.37c5.38,7.71,8.32,16.92,8.32,26.62c0,11.33-4.06,22.08-11.34,30.49
				c1.49,3.73,2.25,7.73,2.25,11.84c0,17.67-14.38,32.05-32.05,32.05c-17.67,0-32.05-14.38-32.05-32.05c0-1.29,0.08-2.57,0.23-3.84
				c-12.55-8.6-20.32-22.97-20.32-38.49c0-2.89,0.27-5.76,0.8-8.59c-8.48-8.66-13.23-20.21-13.23-32.55
				c0-16.09,8.23-30.8,21.48-39.28c-0.29-2.44-0.43-4.9-0.43-7.36c0-32.14,24.31-58.7,55.51-62.26c-0.02-0.61-0.03-1.23-0.03-1.84
				c0-35.87,29.18-65.05,65.05-65.05c6.78,0,13.54,1.07,19.96,3.14c10.56-24.27,34.64-40.45,61.83-40.45
				c10.49,0,20.73,2.41,30.01,7.03c15-13.67,34.7-21.38,55.14-21.38c20.37,0,39.83,7.57,54.77,21.05
				c14.95-13.48,34.41-21.05,54.77-21.05c20.44,0,40.14,7.71,55.14,21.38c9.28-4.62,19.52-7.03,30.01-7.03
				c27.19,0,51.27,16.18,61.83,40.45c6.43-2.07,13.18-3.14,19.96-3.14c35.87,0,65.05,29.18,65.05,65.05c0,0.61-0.01,1.23-0.03,1.84
				c31.2,3.56,55.51,30.12,55.51,62.26c0,2.46-0.14,4.92-0.43,7.36c13.25,8.48,21.48,23.19,21.48,39.28
				c0,12.33-4.76,23.89-13.23,32.55c0.53,2.83,0.8,5.7,0.8,8.59c0,15.52-7.77,29.89-20.32,38.49c0.15,1.27,0.23,2.55,0.23,3.84
				C930.78,821.43,916.4,835.81,898.73,835.81z M888.18,717.08l1.41,8.01c0.24,1.35,0.58,2.69,1.01,3.99l2.17,6.45l-5.37,4.17
				c-6.78,5.26-10.67,13.19-10.67,21.74c0,8.3,3.7,16.07,10.14,21.33l7.17,5.84l-5.6,7.36c-1.72,2.26-2.63,4.96-2.63,7.8
				c0,7.12,5.79,12.92,12.92,12.92s12.92-5.79,12.92-12.92c0-1.7-0.33-3.35-0.97-4.92l-3.52-8.54l8.42-3.82
				c9.82-4.45,16.17-14.29,16.17-25.06c0-2.99-0.48-5.94-1.44-8.78l-2.17-6.45l5.37-4.17c6.78-5.26,10.67-13.19,10.67-21.74
				c0-11.04-6.56-20.98-16.72-25.31L920,691.8l1.9-7.87c0.81-3.35,1.22-6.81,1.22-10.28c0-24-19.53-43.53-43.53-43.53
				c-0.92,0-1.89,0.03-2.88,0.1l-12.49,0.82l2.49-12.27c0.61-3.01,0.92-6.11,0.92-9.21c0-25.32-20.6-45.92-45.92-45.92
				c-7.5,0-14.65,1.75-21.26,5.21c0,0-38.4-42.52-60.54-42.52c-9.41,0-67.49-14.35-85.15-14.35c-18.27,0-35.59,7.95-47.52,21.82
				l-7.25,8.43l-7.25-8.43c-11.93-13.86-29.25-21.82-47.52-21.82c-17.65,0-75.73,14.35-85.15,14.35
				c-22.14,0-60.54,42.52-60.54,42.52c-6.6-3.46-13.75-5.21-21.26-5.21c-25.32,0-45.92,20.6-45.92,45.92c0,3.1,0.31,6.2,0.92,9.21
				l2.5,12.27l-12.49-0.82c-1-0.06-1.97-0.1-2.88-0.1c-24,0-43.53,19.53-43.53,43.53c0,3.47,0.41,6.92,1.22,10.28l1.9,7.87
				l-7.45,3.18c-10.16,4.33-16.73,14.27-16.73,25.31c0,8.56,3.89,16.48,10.67,21.74l5.37,4.17l-2.17,6.45
				c-0.96,2.84-1.44,5.79-1.44,8.78c0,10.77,6.35,20.6,16.17,25.06l8.42,3.82l-3.52,8.54c-0.64,1.56-0.97,3.22-0.97,4.92
				c0,7.12,5.79,12.92,12.92,12.92c7.12,0,12.92-5.79,12.92-12.92c0-2.84-0.91-5.54-2.63-7.8l-5.6-7.36l7.17-5.84
				c6.45-5.26,10.14-13.03,10.14-21.33c0-8.56-3.89-16.48-10.67-21.74l-5.37-4.17l2.17-6.44c0.44-1.3,0.78-2.64,1.01-3.99l1.41-8.01
				l8.59,0.11c24,0,43.53-19.53,43.53-43.53c0-2.43-0.21-4.89-0.61-7.29l-2.08-12.34l12.46,1.24c1.52,0.15,3.06,0.23,4.58,0.23
				c20.32,0,38.46-13.62,44.11-33.12l3.37-11.63l10.54,5.97c7.21,4.09,15.44,6.25,23.78,6.25c9.41,0,18.53-2.71,26.38-7.83
				l6.84-4.47l5.48,6.05c11.86,13.09,28.79,20.6,46.45,20.6c18.27,0,35.59-7.95,47.52-21.82l7.25-8.43l7.25,8.43
				c11.93,13.86,29.25,21.82,47.52,21.82c17.65,0,34.58-7.51,46.45-20.6l5.48-6.05l6.84,4.47c7.84,5.12,16.97,7.83,26.38,7.83
				c8.34,0,16.57-2.16,23.78-6.25l10.54-5.97l3.37,11.63c5.65,19.5,23.79,33.12,44.11,33.12c1.52,0,3.06-0.08,4.58-0.23l12.46-1.24
				l-2.08,12.34c-0.41,2.41-0.61,4.86-0.61,7.29c0,24,19.53,43.53,43.53,43.53L888.18,717.08z" class="st5"></path>
		</g>
		<g>
			<path d="M293.62,739.69c0-138.33,137.17-250.47,306.38-250.47s306.38,112.14,306.38,250.47v-41.53
				c0-138.33-137.17-250.47-306.38-250.47S293.62,559.82,293.62,698.15V739.69z" class="st6"></path>
			<path d="M913.56,739.69h-14.35c0-134.15-134.22-243.3-299.21-243.3s-299.21,109.14-299.21,243.3h-14.35v-41.53
				c0-34.97,8.37-68.88,24.88-100.79c15.88-30.7,38.59-58.25,67.49-81.87c28.79-23.54,62.3-42.01,99.58-54.9
				c38.53-13.32,79.44-20.08,121.6-20.08s83.07,6.75,121.6,20.08c37.28,12.89,70.79,31.36,99.58,54.9
				c28.9,23.63,51.61,51.17,67.49,81.87c16.51,31.91,24.88,65.82,24.88,100.79V739.69z M600,482.04c42.16,0,83.07,6.75,121.6,20.08
				c37.28,12.89,70.79,31.36,99.58,54.9c28.9,23.63,51.61,51.17,67.49,81.87c1.29,2.49,2.53,4.99,3.72,7.51
				C863.14,537.02,743.15,454.86,600,454.86S336.86,537.02,307.61,646.4c1.19-2.52,2.43-5.02,3.72-7.51
				c15.88-30.7,38.59-58.25,67.49-81.87c28.79-23.54,62.3-42.01,99.58-54.9C516.93,488.79,557.84,482.04,600,482.04z" class="st5"></path>
		</g>
		<g>
			<path d="M300.72,722.82c30.14-112.44,152.69-196.6,299.28-196.6c148.92,0,273.03,86.86,300.65,202
				c3.76,15.68,5.73,6.94,5.73,6.94c0-138.33-137.17-250.47-306.38-250.47S293.62,596.82,293.62,735.15
				C293.62,735.15,296.07,740.17,300.72,722.82z" class="st6"></path>
			<path d="M892.62,725.79c-28.85-109.81-149.1-192.4-292.62-192.4c-143.5,0-263.73,82.57-292.61,192.35
				c-4.32,16.43-20.95,9.42-20.95,9.42c0-34.97,8.37-68.88,24.88-100.79c15.88-30.7,38.59-58.25,67.49-81.87
				c28.79-23.54,62.3-42.01,99.58-54.9c38.53-13.32,79.44-20.08,121.6-20.08s83.07,6.75,121.6,20.08
				c37.28,12.89,70.79,31.36,99.58,54.9c28.9,23.63,51.61,51.17,67.49,81.87c16.51,31.91,24.88,65.82,24.88,100.79
				C913.56,735.15,896.93,742.21,892.62,725.79z M600,519.04c42.16,0,83.07,6.75,121.6,20.08c37.28,12.89,70.79,31.36,99.58,54.9
				c28.9,23.63,51.61,51.17,67.49,81.87c1.29,2.49,2.53,4.99,3.72,7.51C863.14,574.02,743.15,491.86,600,491.86
				S336.86,574.02,307.61,683.4c1.19-2.52,2.43-5.02,3.72-7.51c15.88-30.7,38.59-58.25,67.49-81.87
				c28.79-23.54,62.3-42.01,99.58-54.9C516.93,525.79,557.84,519.04,600,519.04z" class="st5"></path>
		</g>
		<g>
			<g>
				<g>
					<circle r="50.7" cy="487.45" cx="401.49" class="st6"></circle>
					<path d="M401.49,545.33c-31.92,0-57.88-25.96-57.88-57.88s25.96-57.88,57.88-57.88s57.88,25.96,57.88,57.88
						S433.4,545.33,401.49,545.33z M401.49,443.92c-24,0-43.53,19.53-43.53,43.53s19.53,43.53,43.53,43.53s43.53-19.53,43.53-43.53
						S425.49,443.92,401.49,443.92z" class="st5"></path>
				</g>
				<g>
					<path d="M452.19,401.93c0,19.11-22.7,34.6-50.7,34.6s-50.7-15.49-50.7-34.6s22.7,14.15,50.7,14.15
						S452.19,382.83,452.19,401.93z" class="st6"></path>
					<path d="M401.49,443.71c-14.97,0-29.14-4.04-39.9-11.38c-11.6-7.91-17.98-18.71-17.98-30.39
						c0-5.88,1.88-9.89,5.59-11.91c6.16-3.36,12.58,0.79,20.71,6.04c8.39,5.42,19.89,12.85,31.58,12.85
						c11.69,0,23.19-7.42,31.58-12.85c8.12-5.25,14.54-9.39,20.71-6.04c3.71,2.02,5.59,6.03,5.59,11.91
						c0,11.69-6.39,22.48-17.98,30.39C430.63,439.66,416.46,443.71,401.49,443.71z M358.4,405.74
						c3.04,13.14,21.54,23.62,43.09,23.62s40.05-10.48,43.09-23.62c-1.26,0.78-2.57,1.63-3.72,2.37
						c-9.89,6.39-23.44,15.14-39.37,15.14c-15.93,0-29.47-8.75-39.37-15.14C360.97,407.37,359.66,406.52,358.4,405.74z" class="st5"></path>
				</g>
				<g>
					<circle r="22.48" cy="487.45" cx="401.49" class="st9"></circle>
					<path d="M401.49,517.11c-16.35,0-29.66-13.3-29.66-29.66s13.3-29.66,29.66-29.66s29.66,13.3,29.66,29.66
						S417.84,517.11,401.49,517.11z M401.49,472.14c-8.44,0-15.31,6.87-15.31,15.31s6.87,15.31,15.31,15.31
						c8.44,0,15.31-6.87,15.31-15.31S409.93,472.14,401.49,472.14z" class="st5"></path>
				</g>
				<g>
					<circle r="22.48" cy="384.13" cx="401.49" class="st6"></circle>
					<path d="M401.49,413.79c-16.35,0-29.66-13.3-29.66-29.66s13.3-29.66,29.66-29.66s29.66,13.3,29.66,29.66
						S417.84,413.79,401.49,413.79z M401.49,368.82c-8.44,0-15.31,6.87-15.31,15.31c0,8.44,6.87,15.31,15.31,15.31
						c8.44,0,15.31-6.87,15.31-15.31C416.79,375.69,409.93,368.82,401.49,368.82z" class="st5"></path>
				</g>
			</g>
			<g>
				<g>
					<circle r="50.7" cy="487.45" cx="798.51" class="st6"></circle>
					<path d="M798.51,545.33c-31.92,0-57.88-25.96-57.88-57.88s25.96-57.88,57.88-57.88s57.88,25.96,57.88,57.88
						S830.43,545.33,798.51,545.33z M798.51,443.92c-24,0-43.53,19.53-43.53,43.53s19.53,43.53,43.53,43.53
						c24,0,43.53-19.53,43.53-43.53S822.52,443.92,798.51,443.92z" class="st5"></path>
				</g>
				<g>
					<path d="M849.22,401.93c0,19.11-22.7,34.6-50.7,34.6c-28,0-50.7-15.49-50.7-34.6s22.7,14.15,50.7,14.15
						C826.52,416.08,849.22,382.83,849.22,401.93z" class="st6"></path>
					<path d="M798.51,443.71c-14.97,0-29.14-4.04-39.9-11.38c-11.6-7.91-17.98-18.71-17.98-30.39
						c0-5.88,1.88-9.89,5.59-11.91c6.16-3.36,12.58,0.79,20.71,6.04c8.39,5.42,19.89,12.85,31.58,12.85
						c11.69,0,23.19-7.42,31.58-12.85c8.12-5.25,14.54-9.39,20.71-6.04c3.71,2.02,5.59,6.03,5.59,11.91
						c0,11.69-6.39,22.48-17.98,30.39C827.65,439.66,813.49,443.71,798.51,443.71z M755.42,405.74
						c3.04,13.14,21.54,23.62,43.09,23.62s40.05-10.48,43.09-23.62c-1.26,0.78-2.57,1.63-3.72,2.37
						c-9.89,6.39-23.44,15.14-39.37,15.14c-15.93,0-29.47-8.75-39.37-15.14C758,407.37,756.68,406.52,755.42,405.74z" class="st5"></path>
				</g>
				<g>
					<circle r="22.48" cy="487.45" cx="798.51" class="st9"></circle>
					<path d="M798.51,517.11c-16.35,0-29.66-13.3-29.66-29.66s13.3-29.66,29.66-29.66s29.66,13.3,29.66,29.66
						S814.87,517.11,798.51,517.11z M798.51,472.14c-8.44,0-15.31,6.87-15.31,15.31s6.87,15.31,15.31,15.31s15.31-6.87,15.31-15.31
						S806.95,472.14,798.51,472.14z" class="st5"></path>
				</g>
				<g>
					<circle r="22.48" cy="384.13" cx="798.51" class="st6"></circle>
					<path d="M798.51,413.79c-16.35,0-29.66-13.3-29.66-29.66s13.3-29.66,29.66-29.66s29.66,13.3,29.66,29.66
						S814.87,413.79,798.51,413.79z M798.51,368.82c-8.44,0-15.31,6.87-15.31,15.31c0,8.44,6.87,15.31,15.31,15.31
						s15.31-6.87,15.31-15.31C813.82,375.69,806.95,368.82,798.51,368.82z" class="st5"></path>
				</g>
			</g>
		</g>
		<g>
			<g>
				<circle r="50.7" cy="512.45" cx="600" class="st6"></circle>
				<path d="M600,570.33c-31.92,0-57.88-25.96-57.88-57.88c0-31.92,25.96-57.88,57.88-57.88s57.88,25.96,57.88,57.88
					C657.88,544.37,631.92,570.33,600,570.33z M600,468.92c-24,0-43.53,19.53-43.53,43.53c0,24,19.53,43.53,43.53,43.53
					s43.53-19.53,43.53-43.53C643.53,488.45,624,468.92,600,468.92z" class="st5"></path>
			</g>
			<g>
				<path d="M650.7,426.93c0,19.11-22.7,34.6-50.7,34.6c-28,0-50.7-15.49-50.7-34.6s22.7,14.15,50.7,14.15
					C628,441.08,650.7,407.83,650.7,426.93z" class="st6"></path>
				<path d="M600,468.71c-14.97,0-29.14-4.04-39.9-11.38c-11.6-7.91-17.98-18.71-17.98-30.39
					c0-5.88,1.88-9.89,5.59-11.91c6.16-3.36,12.58,0.79,20.71,6.04c8.39,5.42,19.89,12.85,31.58,12.85
					c11.69,0,23.19-7.42,31.58-12.85c8.12-5.25,14.54-9.39,20.71-6.04c3.71,2.02,5.59,6.03,5.59,11.91
					c0,11.69-6.39,22.48-17.98,30.39C629.14,464.66,614.97,468.71,600,468.71z M556.91,430.74c3.04,13.14,21.54,23.62,43.09,23.62
					s40.05-10.48,43.09-23.62c-1.26,0.78-2.57,1.63-3.72,2.37c-9.89,6.39-23.44,15.14-39.37,15.14c-15.93,0-29.47-8.75-39.37-15.14
					C559.48,432.37,558.17,431.52,556.91,430.74z" class="st5"></path>
			</g>
			<g>
				<circle r="22.48" cy="512.45" cx="600" class="st9"></circle>
				<path d="M600,542.11c-16.35,0-29.66-13.3-29.66-29.66c0-16.35,13.3-29.66,29.66-29.66s29.66,13.3,29.66,29.66
					C629.66,528.8,616.35,542.11,600,542.11z M600,497.14c-8.44,0-15.31,6.87-15.31,15.31c0,8.44,6.87,15.31,15.31,15.31
					s15.31-6.87,15.31-15.31C615.31,504.01,608.44,497.14,600,497.14z" class="st5"></path>
			</g>
			<g>
				<circle r="22.48" cy="409.13" cx="600" class="st10"></circle>
				<path d="M600,438.79c-16.35,0-29.66-13.3-29.66-29.66s13.3-29.66,29.66-29.66s29.66,13.3,29.66,29.66
					S616.35,438.79,600,438.79z M600,393.82c-8.44,0-15.31,6.87-15.31,15.31c0,8.44,6.87,15.31,15.31,15.31s15.31-6.87,15.31-15.31
					C615.31,400.69,608.44,393.82,600,393.82z" class="st5"></path>
			</g>
		</g>
		<g>
			<g>
				<g>
					<circle r="50.7" cy="696.14" cx="268.27" class="st6"></circle>
					<path d="M268.27,754.01c-31.92,0-57.88-25.96-57.88-57.88c0-31.92,25.96-57.88,57.88-57.88
						s57.88,25.96,57.88,57.88C326.15,728.05,300.18,754.01,268.27,754.01z M268.27,652.61c-24,0-43.53,19.53-43.53,43.53
						c0,24,19.53,43.53,43.53,43.53s43.53-19.53,43.53-43.53C311.8,672.13,292.27,652.61,268.27,652.61z" class="st5"></path>
				</g>
				<g>
					<path d="M318.97,610.62c0,19.11-22.7,34.6-50.7,34.6s-50.7-15.49-50.7-34.6s22.7,14.15,50.7,14.15
						S318.97,591.51,318.97,610.62z" class="st6"></path>
					<path d="M268.27,652.39c-14.97,0-29.14-4.04-39.9-11.38c-11.6-7.91-17.98-18.71-17.98-30.39
						c0-5.88,1.88-9.89,5.59-11.91c6.16-3.36,12.58,0.79,20.71,6.04c8.39,5.42,19.89,12.85,31.58,12.85
						c11.69,0,23.19-7.42,31.58-12.85c8.12-5.25,14.54-9.39,20.71-6.04c3.71,2.02,5.59,6.03,5.59,11.91
						c0,11.69-6.39,22.48-17.98,30.39C297.41,648.35,283.24,652.39,268.27,652.39z M225.18,614.42
						c3.04,13.14,21.54,23.62,43.09,23.62s40.05-10.47,43.09-23.62c-1.26,0.78-2.57,1.63-3.72,2.37
						c-9.89,6.39-23.44,15.14-39.37,15.14c-15.93,0-29.47-8.75-39.37-15.14C227.75,616.06,226.44,615.21,225.18,614.42z" class="st5"></path>
				</g>
				<g>
					<circle r="22.48" cy="696.14" cx="268.27" class="st11"></circle>
					<path d="M268.27,725.79c-16.35,0-29.66-13.3-29.66-29.66s13.3-29.66,29.66-29.66s29.66,13.3,29.66,29.66
						S284.62,725.79,268.27,725.79z M268.27,680.83c-8.44,0-15.31,6.87-15.31,15.31s6.87,15.31,15.31,15.31
						c8.44,0,15.31-6.87,15.31-15.31S276.71,680.83,268.27,680.83z" class="st5"></path>
				</g>
				<g>
					<circle r="22.48" cy="592.81" cx="268.27" class="st6"></circle>
					<path d="M268.27,622.47c-16.35,0-29.66-13.3-29.66-29.66s13.3-29.66,29.66-29.66s29.66,13.3,29.66,29.66
						S284.62,622.47,268.27,622.47z M268.27,577.51c-8.44,0-15.31,6.87-15.31,15.31s6.87,15.31,15.31,15.31
						c8.44,0,15.31-6.87,15.31-15.31S276.71,577.51,268.27,577.51z" class="st5"></path>
				</g>
			</g>
			<g>
				<g>
					<circle r="50.7" cy="696.14" cx="931.73" class="st6"></circle>
					<path d="M931.73,754.01c-31.92,0-57.88-25.96-57.88-57.88c0-31.92,25.96-57.88,57.88-57.88
						c31.92,0,57.88,25.96,57.88,57.88C989.61,728.05,963.65,754.01,931.73,754.01z M931.73,652.61c-24,0-43.53,19.53-43.53,43.53
						c0,24,19.53,43.53,43.53,43.53c24,0,43.53-19.53,43.53-43.53C975.26,672.13,955.73,652.61,931.73,652.61z" class="st5"></path>
				</g>
				<g>
					<path d="M982.44,610.62c0,19.11-22.7,34.6-50.7,34.6c-28,0-50.7-15.49-50.7-34.6s22.7,14.15,50.7,14.15
						C959.74,624.77,982.44,591.51,982.44,610.62z" class="st6"></path>
					<path d="M931.73,652.39c-14.97,0-29.14-4.04-39.9-11.38c-11.6-7.91-17.98-18.71-17.98-30.39
						c0-5.88,1.88-9.89,5.59-11.91c6.16-3.36,12.58,0.79,20.71,6.04c8.39,5.42,19.89,12.85,31.58,12.85
						c11.69,0,23.19-7.42,31.58-12.85c8.12-5.25,14.54-9.39,20.71-6.04c3.71,2.02,5.59,6.03,5.59,11.91
						c0,11.69-6.39,22.48-17.98,30.39C960.87,648.35,946.7,652.39,931.73,652.39z M888.64,614.42
						c3.04,13.14,21.54,23.62,43.09,23.62c21.55,0,40.05-10.47,43.09-23.62c-1.26,0.78-2.57,1.63-3.72,2.37
						c-9.89,6.39-23.44,15.14-39.37,15.14c-15.93,0-29.47-8.75-39.37-15.14C891.21,616.06,889.9,615.21,888.64,614.42z" class="st5"></path>
				</g>
				<g>
					<circle r="22.48" cy="696.14" cx="931.73" class="st11"></circle>
					<path d="M931.73,725.79c-16.35,0-29.66-13.3-29.66-29.66s13.3-29.66,29.66-29.66c16.35,0,29.66,13.3,29.66,29.66
						S948.09,725.79,931.73,725.79z M931.73,680.83c-8.44,0-15.31,6.87-15.31,15.31s6.87,15.31,15.31,15.31
						c8.44,0,15.31-6.87,15.31-15.31S940.17,680.83,931.73,680.83z" class="st5"></path>
				</g>
				<g>
					<circle r="22.48" cy="592.81" cx="931.73" class="st6"></circle>
					<path d="M931.73,622.47c-16.35,0-29.66-13.3-29.66-29.66s13.3-29.66,29.66-29.66c16.35,0,29.66,13.3,29.66,29.66
						S948.09,622.47,931.73,622.47z M931.73,577.51c-8.44,0-15.31,6.87-15.31,15.31s6.87,15.31,15.31,15.31
						c8.44,0,15.31-6.87,15.31-15.31S940.17,577.51,931.73,577.51z" class="st5"></path>
				</g>
			</g>
		</g>
		<path d="M600,568.84" class="st5"></path>
	</g>
	<g>
		<g>
			<g>
				<path d="M507.75,856.4c-1.92,0-3.78-1.07-4.68-2.91c-0.02-0.03-3.03-5.87-10.64-12.34
					c-7.04-5.98-19.58-13.75-39.38-16.84c-27.16-4.23-52.17,0.17-68.37,4.61c-17.68,4.85-29.03,10.79-29.15,10.85
					c-2.55,1.35-5.7,0.38-7.05-2.17c-1.35-2.55-0.38-5.7,2.16-7.05c0.49-0.26,12.27-6.46,30.98-11.62
					c17.25-4.76,43.93-9.48,73.03-4.94c43.46,6.77,57.21,33.73,57.77,34.87c1.27,2.58,0.21,5.71-2.37,6.99
					C509.31,856.23,508.52,856.4,507.75,856.4z" class="st5"></path>
				<path d="M692.25,856.4c-0.77,0-1.56-0.17-2.3-0.54c-2.58-1.27-3.65-4.4-2.37-6.99c0.56-1.14,14.31-28.1,57.77-34.87
					c29.1-4.53,55.78,0.18,73.03,4.94c18.71,5.16,30.48,11.35,30.98,11.62c2.55,1.35,3.51,4.51,2.16,7.06
					c-1.35,2.54-4.51,3.51-7.05,2.16c-0.2-0.1-11.53-6.02-29.14-10.85c-16.2-4.44-41.21-8.84-68.37-4.61
					c-38.16,5.95-49.9,28.94-50.02,29.18C696.03,855.33,694.18,856.4,692.25,856.4z" class="st5"></path>
			</g>
			<g>
				<g>
					<path d="M497.11,938.49c-0.05,0-0.1,0-0.16,0c-4.15-0.08-7.15-2.91-11.3-6.84c-7.3-6.91-19.51-18.48-44.12-21.49
						c-44.29-5.41-65.66-18.34-83.85-39.25c-0.36-0.41-0.67-0.85-0.92-1.31c-0.03-0.06-0.06-0.11-0.07-0.14
						c-0.92-2.16-0.62-4.3,1.58-5.63c2.16-1.31,5.2-0.4,6.68,1.49c0.84,0.99,22.94,26.54,71.61,31.05
						c18.8,1.74,35.34,6.05,47.82,12.47c10.13,5.21,17.36,11.69,19.83,17.79c1.59,3.93,1,7.51-1.64,9.81
						C500.65,938.12,498.57,938.49,497.11,938.49z M364.98,865.35C364.98,865.35,364.98,865.35,364.98,865.35
						c0.02,0.03,0.04,0.05,0.06,0.07C365.02,865.39,365,865.37,364.98,865.35z" class="st5"></path>
				</g>
				<g>
					<path d="M697.42,936.43c-2.64-2.3-3.24-5.87-1.64-9.81c2.47-6.1,9.7-12.58,19.83-17.79
						c12.49-6.42,29.03-10.73,47.82-12.47c48.67-4.51,70.77-30.06,71.61-31.05c1.48-1.89,4.52-2.8,6.68-1.49
						c2.2,1.33,2.5,3.46,1.58,5.63c-0.02,0.04-0.04,0.09-0.07,0.14c-0.25,0.46-0.57,0.9-0.92,1.31
						c-18.19,20.91-39.56,33.84-83.85,39.25c-24.61,3.01-36.83,14.58-44.12,21.49c-4.15,3.93-7.14,6.77-11.3,6.84
						c-0.05,0-0.1,0-0.16,0C701.43,938.49,699.35,938.12,697.42,936.43z M834.97,865.42c0.02-0.02,0.04-0.05,0.05-0.07c0,0,0,0,0,0
						C835,865.37,834.98,865.39,834.97,865.42z" class="st5"></path>
				</g>
			</g>
		</g>
		<path d="M580.33,1117.43c1.88,7.96,12.01,13.01,20.12,13.01c8.03,0,18.77-4.58,19.98-12.78l1.16-13.14l-43.17,0.95
			L580.33,1117.43z" class="st9"></path>
		<ellipse ry="13.04" rx="3.56" cy="827.72" cx="600" class="st12"></ellipse>
		<g>
			<path d="M621.54,1088.55c-9.44-0.38-16.66,6.47-19.81,10.11c-0.92,1.06-2.55,1.06-3.47,0
				c-3.15-3.64-10.36-10.49-19.81-10.11c-11.38,0.46-15.49,9.8-16.27,11.89c-0.1,0.26-0.14,0.53-0.14,0.8l0,0
				c0,0.72,0.34,1.41,0.92,1.84c17.28,12.66,33.44,11.1,36.53,11.22c0.33,0.01,0.65,0.01,0.98,0c3.1-0.12,19.25,1.43,36.53-11.22
				c0.58-0.43,0.92-1.12,0.92-1.84l0,0c0-0.27-0.05-0.54-0.14-0.8C637.03,1098.35,632.92,1089.01,621.54,1088.55z" class="st9"></path>
			<path d="M642.25,1098.79c-2.59-6.95-9.33-14.53-20.52-14.98h0c-9.74-0.39-17.3,5.25-21.73,9.74
				c-4.43-4.5-11.98-10.13-21.73-9.74c-11.19,0.45-17.94,8.03-20.52,14.98c-0.29,0.79-0.44,1.61-0.44,2.46
				c0,2.24,1.07,4.36,2.86,5.67c5.16,3.78,10.23,6.38,14.94,8.18l0.53,3.08l0.07,0.34c2.47,10.43,14.51,16.66,24.73,16.66
				c9.21,0,22.96-5.22,24.67-16.83l0.3-3.46c4.56-1.79,9.45-4.34,14.41-7.97c1.79-1.31,2.87-3.43,2.87-5.67
				C642.69,1100.41,642.54,1099.58,642.25,1098.79z M600.45,1125.69c-5.58,0-12.51-3.17-14.85-7.65c5.8,1.08,10.33,1.03,12.69,1.01
				c0.44,0,0.79-0.01,1.04,0c0.23,0.01,0.45,0.01,0.68,0.01c0.22,0,0.45,0,0.67-0.01c0.25-0.01,0.6,0,1.04,0
				c2.51,0.03,7.47,0.07,13.81-1.23C614.06,1122.38,606.67,1125.69,600.45,1125.69z M601.81,1109.57c-0.61-0.01-1.08-0.01-1.5,0.01
				c-0.21,0.01-0.4,0.01-0.62,0c-0.21-0.01-0.44-0.01-0.68-0.01c-0.25,0-0.52,0-0.82,0.01c-4.3,0.04-17.07,0.17-30.78-9.16
				c1.43-2.69,4.7-6.86,11.24-7.12c7.59-0.31,13.74,5.83,16.03,8.48c1.34,1.55,3.28,2.43,5.32,2.43s3.98-0.89,5.32-2.43
				c2.29-2.65,8.44-8.77,16.03-8.48c6.55,0.26,9.81,4.43,11.24,7.12C618.88,1109.74,606.12,1109.61,601.81,1109.57z" class="st5"></path>
		</g>
	</g>
</g>
</svg>
